<svg xmlns="http://www.w3.org/2000/svg">
    <symbol id="icon-aircraft" viewBox="0 0 32 32">
        <g style="fill-rule:evenodd;clip-rule:evenodd;stroke-linejoin:round;stroke-miterlimit:2;">
            <path d="M28.916,10.335l0.007,-0.005l0.005,0.006l0.136,0.017l-0.075,0.066l1.136,1.526l-8.381,6.239l-0.59,-0.793l-0.024,0.021l-9.088,-9.162l16.874,2.085Z"/>
            <path d="M9.965,28.574l-0.005,0.007l0.006,0.005l0.017,0.136l0.066,-0.075l1.527,1.136l6.234,-8.385l-0.793,-0.589l0.021,-0.024l-9.167,-9.084l2.094,16.873Z"/>
            <path d="M24.861,31.483l-0.002,0.003l0.003,0.002l0.014,0.058l0.025,-0.036l0.711,0.414l2.27,-3.907l-0.37,-0.215l0.008,-0.011l-4.382,-3.456l1.723,7.148Z"/>
            <path d="M31.24,25.34l0.004,-0.002l0.001,0.003l0.057,0.017l-0.036,0.023l0.382,0.728l-4.001,2.099l-0.198,-0.378l-0.012,0.007l-3.263,-4.527l7.066,2.03Z"/>
            <path d="M18.886,22.322l3.451,-3.451l3.951,5.677l-1.725,1.725l-5.677,-3.951Z"/>
            <path d="M28.409,28.498l-4.711,-2.806l1.904,-1.905l2.807,4.711Z"/>
            <path id="Main-Fuselage" serif:id="Main Fuselage" d="M10.096,6.017l13.636,13.636l-4.111,4.111l-13.636,-13.636l0.164,-0.164l1.37,-0.318l2.07,-2.071l0.319,-1.37l0.188,-0.188Z"/>
            <path d="M10.428,7.025l-3.29,3.29l-0.748,-1.913l2.126,-2.125l1.912,0.748Z"/>
            <path d="M0.713,0.587c0.149,0.039 3.119,0.867 7.802,5.692c4.749,4.892 -0.917,1.149 -1.055,1.058c0.178,0.27 3.768,5.737 -1.063,1.048c-4.951,-4.807 -5.694,-7.808 -5.694,-7.808l0.01,0.01Z"/>
            <path d="M16.175,7.024c0.094,0.025 1.962,0.546 4.907,3.581c2.987,3.076 -0.577,0.722 -0.664,0.665c0.112,0.17 2.37,3.608 -0.668,0.659c-3.114,-3.023 -3.581,-4.911 -3.581,-4.911l0.006,0.006Z"/>
            <path d="M6.37,15.598c0.094,0.025 1.962,0.546 4.907,3.58c2.987,3.077 -0.577,0.723 -0.664,0.665c0.112,0.17 2.37,3.609 -0.668,0.659c-3.114,-3.023 -3.581,-4.91 -3.581,-4.91l0.006,0.006Z"/>
        </g>
    </symbol>
    <symbol id="icon-sicario" viewBox="0 0 512 512">
        <g style="fill-rule:evenodd;clip-rule:evenodd;stroke-linejoin:round;stroke-miterlimit:2;">
            <path d="M30.662,377.511C11.102,341.338 -0,299.955 -0,256C-0,114.71 114.71,0 256,0C397.29,0 512,114.71 512,256C512,397.29 397.29,512 256,512C158.708,512 74.019,457.608 30.711,377.603L30.529,377.603L30.662,377.511ZM49.482,377.603C91.199,448.241 168.106,495.659 256,495.659C388.272,495.659 495.659,388.272 495.659,256C495.659,123.728 388.272,16.341 256,16.341C123.728,16.341 16.341,123.728 16.341,256C16.341,296.528 26.422,334.72 44.21,368.198L135.861,305.198L71.552,306.472L167.878,246.984L113.757,247.439L205.263,184.04L170.698,184.767L310.14,86.531L318.872,138.56L396.643,176.308L408.923,195.865L485.329,235.523L457.131,278.456L369.446,295.193L330.151,333.214L330.151,377.603L243.466,377.603L292.403,292.1L346.433,264.266L432.208,260.719L450.582,235.705L397.462,212.237L377.632,189.861L299.862,158.662L294.859,130.1L232.187,174.034L279.577,190.498L194.439,256.626L242.921,256.353L190.437,293.738L235.189,293.738L114.121,377.603L49.482,377.603Z" style="fill-rule:nonzero;stroke-width:3px;"/>
        </g>
    </symbol>
    <symbol id="icon-sicario-alt" viewBox="0 0 512 512">
        <g style="fill-rule:evenodd;clip-rule:evenodd;stroke-linejoin:round;stroke-miterlimit:2;">
            <path d="M75.469,419.764L75.469,419.916L273.186,419.916L273.186,419.764L337.306,419.764L337.306,369.793L381.542,326.989L480.256,308.148L512,259.815L425.984,215.169L412.16,193.153L324.608,150.657L314.778,92.084L157.798,202.676L196.71,201.857L93.696,273.229L154.624,272.717L46.182,339.687L118.579,338.253L0,419.764L75.469,419.764ZM256.866,389.803L294.81,323.508L355.635,292.173L452.198,288.18L472.883,260.02L413.082,233.601L390.758,208.41L303.206,173.287L297.574,141.133L227.021,190.593L280.371,209.127L184.525,283.572L239.104,283.265L180.019,325.351L230.4,325.351L137.357,389.803L256.866,389.803Z" style="fill-rule:nonzero;"/>
        </g>
    </symbol>
</svg>
